<svg width="150" height="54" viewBox="0 0 150 54" fill="none" xmlns="http://www.w3.org/2000/svg"><path d="M146.576 44.723a6.817 6.817 0 01-6.813 6.813H10.607a6.817 6.817 0 01-6.812-6.813V9.16a6.817 6.817 0 016.812-6.813h129.139a6.816 6.816 0 016.812 6.813v35.563h.018z" fill="#0E7C98"/><path d="M53.124 3.9H11.966c-3.583 0-6.495 2.842-6.495 6.372V43.54c0 3.53 2.912 6.372 6.495 6.372h41.176L53.124 3.9z" fill="#fff"/><path fill-rule="evenodd" clip-rule="evenodd" d="M26.068 19.114l-1.96 2.7c-.988 1.342-.67 3.742.654 4.73l3.618 2.612c.635.46.67.9.37 1.36l.53.388 1.835-2.542c1.13-1.57 1.042-3.724-.635-4.942l-3.653-2.665c-.442-.317-.495-.776-.23-1.27l-.53-.371zM29.21 7.183l-3.036 4.218c-1.43 1.977-.918 5.348 1.059 6.795l5.012 3.671c1.024.76 1.147 2.648.406 3.618l.423.318 3.46-4.871c1.553-2.189 1.465-5.418-.971-7.183l-5.365-3.883c-.76-.547-1.13-1.483-.495-2.347l-.494-.336zm-8.049 26.439h4.024l.724 2.453h6.6l.724-2.453h4.024l-.53-1.8H21.674l-.512 1.8zm3.477 10.06c-.176-1.165-.635-1.448-1.588-1.854.706-.406 1.147-1.023 1.147-1.87 0-1.677-1.359-2.348-2.877-2.348h-4.147v8.878h4.147c1.747 0 3.618-.777 3.318-2.806zm-5.595-4.377h2.171c1.342 0 1.412 1.906.07 1.906h-2.258l.017-1.906zm2.418 5.506h-2.418v-2.03h2.418c1.8 0 1.677 2.03 0 2.03zm11.472-1.129c-.176-1.165-.635-1.448-1.588-1.854.706-.406 1.147-1.023 1.147-1.87 0-1.677-1.359-2.348-2.877-2.348H25.45v8.878h4.148c1.765 0 3.635-.777 3.335-2.806zm-5.577-4.377h2.171c1.341 0 1.412 1.906.07 1.906h-2.259c.018-.018.018-1.906.018-1.906zm2.418 5.506h-2.418v-2.03h2.418c1.765 0 1.66 2.03 0 2.03zm11.454-1.129c-.176-1.165-.635-1.448-1.588-1.854.706-.406 1.147-1.023 1.147-1.87 0-1.677-1.359-2.348-2.877-2.348h-4.165v8.878h4.148c1.765 0 3.635-.777 3.335-2.806zm-5.594-4.377h2.17c1.342 0 1.412 1.906.071 1.906h-2.26l.019-1.906zm2.417 5.506h-2.417v-2.03h2.417c1.783 0 1.677 2.03 0 2.03z" fill="#0E7C98"/><path fill-rule="evenodd" clip-rule="evenodd" d="M76.209 21.285c-.547-.636-1.412-1.218-2.224-1.43-.353-.106-.741-.14-1.182-.14-.618 0-1.183.123-1.677.334-.512.23-.935.53-1.288.936a4.267 4.267 0 00-.847 1.43c-.212.564-.3 1.182-.3 1.835 0 .706.105 1.324.282 1.888.194.565.476 1.042.83 1.43a3.67 3.67 0 001.27.918c.494.23 1.059.317 1.66.317 1.129 0 3.07-.617 3.635-1.712l-1.324-1.182c-.37.6-1.553 1.13-2.241 1.13-.336 0-.653-.071-.936-.23a2.072 2.072 0 01-.706-.6 2.415 2.415 0 01-.423-.883 3.762 3.762 0 01-.16-1.111c0-.406.054-.777.16-1.13a2.94 2.94 0 01.423-.882 1.9 1.9 0 01.706-.583c.265-.141.583-.212.936-.212.706 0 1.694.46 2.153 1.077l1.253-1.2zm25.45 7.377v-1.73h-4.8v-2.135h3.865v-1.694h-3.866v-1.536h4.607v-1.73h-6.46v8.825h6.654zm8.56-6.459c-.247-.565-.565-1.024-.971-1.36a3.522 3.522 0 00-1.465-.758 6.784 6.784 0 00-1.835-.247h-2.912v8.806h2.771a6.2 6.2 0 001.729-.247 4.665 4.665 0 001.536-.776c.441-.353.794-.812 1.076-1.377.265-.564.406-1.235.406-1.994.018-.812-.106-1.483-.335-2.047zm-1.747 3.141c-.124.318-.283.618-.512.847a2.26 2.26 0 01-.883.547 3.81 3.81 0 01-1.253.195h-.918V21.55h.989c.988 0 1.694.229 2.135.688.424.441.653 1.13.653 2.03-.035.388-.088.758-.211 1.076zm5.753 3.318v-8.824h-1.871v8.824h1.871zm8.666-7.077v-1.747h-7.201v1.747h2.665v7.077h1.853v-7.077h2.683zm16.396.618c-.247-.565-.565-1.024-.971-1.36a3.522 3.522 0 00-1.465-.758 6.778 6.778 0 00-1.835-.247h-2.912v8.806h2.771a6.2 6.2 0 001.729-.247 4.665 4.665 0 001.536-.776c.441-.353.794-.812 1.076-1.377.265-.564.406-1.235.406-1.994.018-.812-.088-1.483-.335-2.047zm-1.73 3.141c-.123.318-.282.618-.511.847-.248.247-.53.424-.883.547-.353.142-.776.195-1.253.195h-.918V21.55h.989c.988 0 1.694.229 2.135.688.424.441.653 1.13.653 2.03-.035.388-.088.758-.212 1.076zm-6.83 3.318v-1.73h-4.783v-2.135h3.848v-1.694h-3.848v-1.536h4.571v-1.73h-6.442v8.825h6.654zm-15.549 11.384v-1.73h-4.8v-2.135h3.847v-1.695h-3.847v-1.535h4.606v-1.73h-6.459v8.825h6.653zM84.786 21.285c-.547-.636-1.412-1.218-2.223-1.43-.353-.106-.742-.14-1.183-.14-.618 0-1.182.123-1.677.334-.511.23-.935.53-1.288.936a4.267 4.267 0 00-.847 1.43c-.212.564-.3 1.182-.3 1.835 0 .706.106 1.324.282 1.888.194.565.477 1.042.83 1.43a3.67 3.67 0 001.27.918c.495.23 1.06.317 1.66.317 1.129 0 3.07-.617 3.635-1.712l-1.323-1.182c-.371.6-1.554 1.13-2.242 1.13-.335 0-.653-.071-.935-.23a2.072 2.072 0 01-.706-.6 2.415 2.415 0 01-.424-.883 3.762 3.762 0 01-.159-1.111c0-.406.053-.777.16-1.13.105-.353.246-.635.423-.882a1.9 1.9 0 01.706-.583c.264-.141.582-.212.935-.212.706 0 1.694.46 2.153 1.077l1.253-1.2zm-7.942 14.701a2.376 2.376 0 00-.9-.723c.3-.177.547-.406.706-.706.177-.282.247-.635.247-1.006 0-.741-.247-1.324-.776-1.73-.512-.388-1.218-.6-2.1-.6h-4.166v8.807h4.095c.476 0 .918-.07 1.306-.194.388-.123.741-.3 1.024-.547.264-.247.494-.547.653-.883.158-.335.247-.758.247-1.235a1.872 1.872 0 00-.336-1.182zm-5.206-3.141h2.294c.388 0 .689.07.847.23.177.14.248.352.248.635 0 .247-.071.441-.23.6-.159.159-.406.247-.794.247H71.62v-1.712h.018zm3.37 5.206c-.21.212-.546.3-.97.3h-2.4v-2.276h2.4c.865 0 1.288.37 1.288 1.147.018.353-.088.635-.317.83zm10.732-1.906v-4.924h-1.8v4.96c0 .723-.177 1.27-.495 1.676-.318.406-.776.6-1.359.6-.582 0-1.023-.211-1.359-.617-.318-.406-.494-.971-.494-1.695v-4.924h-1.8v4.96c0 .653.088 1.218.264 1.712.177.494.424.917.742 1.253.317.335.706.6 1.165.759.459.176.953.264 1.5.264 1.165 0 2.065-.353 2.7-1.058.6-.671.936-1.677.936-2.966zm8.33 1.235c0-.476-.088-.864-.265-1.182-.194-.3-.406-.564-.706-.758-.282-.212-.618-.353-.97-.477a8.078 8.078 0 00-1.077-.282c-.353-.089-.67-.16-.883-.23a2.188 2.188 0 01-.564-.23.67.67 0 01-.283-.246.803.803 0 01-.088-.353.49.49 0 01.07-.283.755.755 0 01.23-.247 1.74 1.74 0 01.406-.194c.177-.053.37-.07.618-.07.406 0 .776.088 1.13.246.317.16.652.371.935.689l1.306-1.236a4.6 4.6 0 00-1.448-1.023c-.529-.247-1.147-.353-1.853-.353a4.14 4.14 0 00-1.253.176c-.388.124-.741.283-1.023.512-.283.23-.53.494-.706.812-.177.318-.248.688-.248 1.094 0 .441.071.794.212 1.094.141.3.318.547.583.742.264.194.547.353.9.476.335.124.741.247 1.147.318.424.088.759.194 1.041.265.265.088.477.176.618.264.141.089.247.194.282.283a.82.82 0 01.089.37c0 .336-.124.583-.37.742-.248.159-.654.23-1.201.23-.441 0-.847-.09-1.236-.248a3.088 3.088 0 01-1.076-.759L87.08 38.67c.335.494.83.883 1.447 1.183.618.282 1.306.423 2.065.423.618 0 1.165-.07 1.606-.212.441-.14.812-.317 1.112-.582.282-.247.512-.547.653-.882.035-.424.106-.812.106-1.218zm3.265 2.666V31.22h-1.8v8.825h1.8zm9.213 0v-8.807h-1.783v5.648c-.07-.124-.159-.265-.264-.46-.124-.193-.248-.37-.353-.529l-3.213-4.659h-1.747v8.807h1.783V34.24c.07.123.159.264.264.458.124.194.248.37.353.53l3.318 4.8 1.642.018zm16.025-2.666c0-.476-.088-.864-.264-1.182a2.088 2.088 0 00-.706-.758c-.283-.212-.618-.353-.971-.477a8.084 8.084 0 00-1.077-.282 7.706 7.706 0 01-.882-.23 2.189 2.189 0 01-.565-.23.668.668 0 01-.282-.246.803.803 0 01-.089-.353.48.48 0 01.071-.283.763.763 0 01.229-.247c.106-.07.248-.141.406-.194a2.05 2.05 0 01.618-.07c.406 0 .777.088 1.13.246.317.16.653.371.935.689l1.306-1.236a4.806 4.806 0 00-1.447-1.023c-.53-.247-1.147-.353-1.853-.353a4.15 4.15 0 00-1.253.176c-.389.124-.742.283-1.024.512-.282.23-.53.494-.706.812-.176.318-.247.688-.247 1.094 0 .441.071.794.212 1.094.141.283.317.547.582.742.247.194.547.353.9.476.336.124.741.247 1.147.318.424.088.759.194 1.042.265.264.088.476.176.617.264.142.089.248.194.283.283a.82.82 0 01.088.37c0 .336-.123.583-.371.742-.247.159-.653.23-1.2.23a3.23 3.23 0 01-1.235-.248 3.098 3.098 0 01-1.077-.759l-1.306 1.147c.336.494.83.883 1.447 1.183.618.3 1.306.423 2.065.423.618 0 1.165-.07 1.606-.212.442-.14.812-.317 1.112-.582.283-.247.512-.547.653-.882.036-.424.106-.812.106-1.218zm7.784 0c0-.476-.089-.864-.265-1.182a2.088 2.088 0 00-.706-.758c-.283-.212-.618-.353-.971-.477a8.07 8.07 0 00-1.076-.282 7.73 7.73 0 01-.883-.23 2.204 2.204 0 01-.565-.23.668.668 0 01-.282-.246.802.802 0 01-.088-.353.48.48 0 01.07-.283.756.756 0 01.23-.247c.106-.07.247-.141.406-.194.176-.053.353-.07.617-.07.406 0 .777.088 1.13.246.318.16.653.371.935.689l1.306-1.236a4.593 4.593 0 00-1.447-1.023c-.529-.247-1.147-.353-1.853-.353-.441 0-.865.053-1.253.176-.388.124-.741.283-1.024.512a2.84 2.84 0 00-.706.812c-.176.318-.247.688-.247 1.094 0 .441.071.794.212 1.094.141.283.318.547.582.742.247.194.548.353.901.476.352.124.741.247 1.147.318.423.088.759.194 1.041.265.265.088.477.176.618.264.141.089.247.194.282.283a.82.82 0 01.088.37c0 .336-.123.583-.37.742-.247.159-.653.23-1.2.23a3.23 3.23 0 01-1.236-.248 3.086 3.086 0 01-1.076-.759l-1.307 1.147c.336.494.83.883 1.448 1.183.617.3 1.306.423 2.065.423.617 0 1.165-.07 1.606-.212.441-.14.812-.317 1.112-.582.282-.247.511-.547.653-.882.035-.424.106-.812.106-1.218zM64.843 19.838h-1.8l-3.565 8.824h1.994l.741-1.959h3.389l.741 1.96h2.047l-3.547-8.825zm-2.012 5.188l.6-1.606a7.66 7.66 0 00.265-.74c.088-.248.159-.442.194-.619.053.177.106.371.194.618l.265.741.6 1.606H62.83zm28.945.283c.6-.23 1.253-.618 1.553-1.042.282-.423.44-.97.44-1.64 0-.477-.087-.883-.246-1.236-.177-.336-.388-.653-.706-.865-.282-.247-.635-.406-1.024-.53a4.023 4.023 0 00-1.235-.176h-4.324v8.807h1.853V25.45l1.659.07 1.941 3.107h2.136l-2.047-3.318zm-1.236-1.5h-2.435v-2.26h2.435c.406 0 .741.089.97.248.248.176.354.459.354.864 0 .777-.441 1.148-1.324 1.148z" fill="#fff"/></svg>