<svg width="150" height="33" viewBox="0 0 150 33" fill="none" xmlns="http://www.w3.org/2000/svg"><g clip-path="url(#clip0_306:30)"><path d="M77.41 15.831c-1.219 0-2.084.406-2.984.812v9.178c.847.088 1.342.088 2.154.088 2.912 0 3.318-1.341 3.318-3.195V18.32c0-1.395-.46-2.489-2.489-2.489zm-19.362-.512c-2.03 0-2.489 1.112-2.489 2.489v.776h4.96v-.776c0-1.377-.459-2.489-2.471-2.489zm-37.522 9.566c0 1.095.512 1.66 1.641 1.66 1.218 0 1.942-.389 2.824-.813v-2.17h-2.665c-1.253 0-1.8.229-1.8 1.323zm75.732-9.054c-2.03 0-2.735 1.112-2.735 2.489v5.03c0 1.376.706 2.488 2.735 2.488 2.03 0 2.736-1.112 2.736-2.488v-5.03c-.018-1.395-.724-2.489-2.736-2.489zM10.59 30.515H4.624V16.096H1.66v-4.977h2.983V8.136c0-4.059 1.676-6.46 6.46-6.46h3.97v4.978h-2.488c-1.871 0-1.995.688-1.995 1.976v2.489h4.501l-.53 4.977h-3.97v14.42zm20.367.036h-4.96l-.23-1.253a11.408 11.408 0 01-5.63 1.464c-3.635 0-5.577-2.435-5.577-5.788 0-3.971 2.26-5.384 6.301-5.384h4.113v-.882c0-2.03-.23-2.63-3.354-2.63h-5.065l.494-4.959h5.577c6.83 0 8.33 2.153 8.33 7.624v11.808zm16.872-14.084c-3.089-.53-3.97-.653-5.471-.653-2.665 0-3.477.582-3.477 2.859v4.289c0 2.276.812 2.859 3.477 2.859 1.482 0 2.383-.124 5.471-.653v4.853c-2.7.6-4.465.76-5.965.76-6.39 0-8.948-3.372-8.948-8.225v-3.477c0-4.871 2.541-8.242 8.948-8.242 1.482 0 3.247.158 5.965.776v4.854zm18.655 6.089H55.56v.405c0 2.277.812 2.86 3.477 2.86 2.4 0 3.865-.124 6.954-.653v4.853c-2.983.6-4.518.76-7.448.76-6.389 0-8.948-3.372-8.948-8.225v-3.99c0-4.253 1.889-7.73 8.436-7.73 6.548 0 8.437 3.442 8.437 7.73v3.99h.017zm19.361.105c0 4.695-1.341 8.12-9.477 8.12-2.93 0-4.66-.266-7.907-.76V3.177l5.948-.989v9.39c1.288-.477 2.947-.724 4.465-.724 5.965 0 6.954 2.665 6.954 6.954l.017 4.854zm19.097.089c0 4.059-1.677 7.977-8.666 7.977-7.007 0-8.701-3.936-8.701-7.977v-3.918c0-4.06 1.712-7.978 8.701-7.978 7.007 0 8.666 3.936 8.666 7.978v3.918zm19.078 0c0 4.059-1.676 7.977-8.665 7.977-7.007 0-8.701-3.936-8.701-7.977v-3.918c0-4.06 1.712-7.978 8.701-7.978 6.989 0 8.665 3.936 8.665 7.978v3.918zm19.591 7.765h-6.46l-5.453-9.107v9.107h-5.966V3.177l5.966-.989v17.614l5.453-8.648h6.46l-5.965 9.442 5.965 9.92zm-28.274-14.684c-2.03 0-2.718 1.112-2.718 2.489v5.03c0 1.376.706 2.488 2.718 2.488 2.03 0 2.736-1.112 2.736-2.488v-5.03c0-1.395-.724-2.489-2.736-2.489zm31.68 11.278c1.006 0 1.8.812 1.8 1.836 0 1.04-.794 1.853-1.817 1.853-1.006 0-1.818-.812-1.818-1.853 0-1.006.812-1.836 1.835-1.836zm-.017.3c-.812 0-1.465.688-1.465 1.553 0 .883.67 1.553 1.482 1.553.812 0 1.465-.688 1.465-1.553s-.653-1.553-1.482-1.553zm-.336 2.612h-.335v-2.047c.176-.018.335-.053.582-.053.318 0 .512.07.636.159.123.088.176.23.176.423a.494.494 0 01-.406.494v.018c.177.035.3.194.336.494.053.318.106.442.123.512h-.335c-.053-.07-.106-.247-.141-.53-.053-.264-.177-.352-.442-.352h-.194v.882zm0-1.13h.23c.264 0 .494-.105.494-.352 0-.177-.124-.353-.494-.353-.106 0-.177 0-.23.017v.689z" fill="#3B5998"/></g><defs><clipPath id="clip0_306:30"><path fill="#fff" d="M0 0h150v32.192H0z"/></clipPath></defs></svg>