<svg width="150" height="51" viewBox="0 0 150 51" fill="none" xmlns="http://www.w3.org/2000/svg"><path d="M63.86 26.03c0 7.058-5.514 12.242-12.297 12.242-6.784 0-12.243-5.184-12.243-12.243 0-7.113 5.514-12.242 12.298-12.242 6.783 0 12.242 5.129 12.242 12.242zm-5.404 0c0-4.412-3.199-7.39-6.894-7.39-3.694 0-6.893 2.978-6.893 7.39 0 4.356 3.199 7.39 6.894 7.39 3.694 0 6.893-3.034 6.893-7.39z" fill="#EA4335"/><path d="M90.33 26.03c0 7.058-5.514 12.242-12.297 12.242S65.735 33.088 65.735 26.03c0-7.058 5.515-12.242 12.298-12.242s12.298 5.129 12.298 12.242zm-5.403 0c0-4.412-3.199-7.39-6.894-7.39-3.695 0-6.893 2.978-6.893 7.39 0 4.356 3.198 7.39 6.893 7.39s6.894-3.034 6.894-7.39z" fill="#FBBC05"/><path d="M115.699 14.504v21.948c0 9.044-5.35 12.74-11.636 12.74-5.956 0-9.486-3.971-10.864-7.225l4.687-1.93c.827 1.985 2.868 4.356 6.177 4.356 4.025 0 6.507-2.481 6.507-7.169V35.46h-.166c-1.213 1.489-3.529 2.757-6.452 2.757-6.121 0-11.746-5.35-11.746-12.188 0-6.893 5.625-12.297 11.746-12.297 2.923 0 5.239 1.323 6.452 2.757h.166v-1.985h5.129zm-4.743 11.58c0-4.3-2.868-7.444-6.507-7.444-3.695 0-6.839 3.143-6.839 7.444 0 4.247 3.089 7.39 6.839 7.39 3.639-.055 6.507-3.143 6.507-7.39z" fill="#4285F4"/><path d="M124.081 1.654V37.5h-5.239V1.654h5.239z" fill="#34A853"/><path d="M144.485 30.055l4.191 2.758c-1.323 1.985-4.577 5.404-10.202 5.404-6.948 0-12.132-5.35-12.132-12.243 0-7.224 5.239-12.187 11.526-12.187 6.342 0 9.43 5.073 10.478 7.775l.551 1.38-16.324 6.782c1.269 2.482 3.199 3.695 5.956 3.695 2.703 0 4.578-1.323 5.956-3.364zm-12.849-4.412l10.919-4.522c-.607-1.544-2.426-2.592-4.522-2.592-2.702 0-6.507 2.372-6.397 7.114z" fill="#EA4335"/><path d="M19.467 22.83v-5.183h17.482c.165.882.275 1.985.275 3.144 0 3.915-1.047 8.713-4.522 12.132-3.309 3.474-7.61 5.35-13.235 5.35C8.989 38.272.221 29.723.221 19.3.22 8.88 9.044.332 19.467.332c5.79 0 9.926 2.26 13.015 5.239l-3.64 3.64c-2.206-2.096-5.239-3.695-9.375-3.695-7.665 0-13.621 6.176-13.621 13.787 0 7.61 5.956 13.786 13.621 13.786 4.963 0 7.776-1.985 9.596-3.805 1.489-1.489 2.426-3.585 2.812-6.452H19.467z" fill="#4285F4"/></svg>